<?xml version="1.0" encoding="utf-8"?>
<!-- Generator: Adobe Illustrator 27.0.0, SVG Export Plug-In . SVG Version: 6.00 Build 0)  -->
<svg version="1.1" id="Layer_1" xmlns="http://www.w3.org/2000/svg" xmlns:xlink="http://www.w3.org/1999/xlink" x="0px" y="0px"
	 viewBox="0 0 1080 1080" style="enable-background:new 0 0 1080 1080;" xml:space="preserve">
<style type="text/css">
	.st0{fill:#1F5440;}
	.st1{fill:#356E5A;}
	.st2{fill:#4A8874;}
	.st3{fill:#60A28E;}
	.st4{fill:#75BCA8;}
</style>
<g>
	<g>
		<path class="st0" d="M426.38,530.92h116.84c28.82,0,51.66-7.2,68.54-21.62c16.86-14.4,25.3-34.8,25.3-61.18
			c0-26.36-8.44-46.92-25.3-61.64c-16.88-14.72-39.72-22.08-68.54-22.08H426.38V530.92z M626.48,784.37
			c17.48-15.64,26.22-37.26,26.22-64.86c0-27.6-8.9-49.36-26.68-65.32c-17.8-15.94-41.1-23.92-69.92-23.92H426.38v177.56h130.64
			C585.84,807.83,609,800.01,626.48,784.37z M745.16,633.49c25.44,30.36,38.18,65.48,38.18,105.34c0,33.12-8.44,62.42-25.3,87.86
			c-16.88,25.46-41.26,45.24-73.14,59.34c-31.9,14.12-69.62,21.16-113.16,21.16H296.66V265.03h260.36
			c43.54,0,81.42,7.36,113.62,22.08c32.2,14.72,56.58,34.96,73.14,60.72c16.56,25.76,24.84,54.6,24.84,86.48
			c0,36.2-10.9,66.4-32.66,90.62c-21.78,24.24-52.6,42.18-92.46,53.82C685.82,584.89,719.7,603.13,745.16,633.49z"/>
		<path class="st1" d="M426.17,520.26l116.65-8.88c28.77-2.19,51.58-11.13,68.43-26.83c16.83-15.69,25.26-36.73,25.26-63.1
			c0-26.36-8.42-46.28-25.26-59.72c-16.85-13.44-39.65-19.06-68.43-16.87l-116.65,8.88V520.26z M625.94,758.5
			c17.45-16.97,26.18-39.25,26.18-66.85c0-27.6-8.88-48.69-26.64-63.29c-17.77-14.59-41.03-20.8-69.81-18.6l-129.51,9.86v177.56
			l130.43-9.93C585.37,785.05,608.49,775.47,625.94,758.5z M744.43,598.6c25.4,28.43,38.12,62.58,38.12,102.44
			c0,33.12-8.42,63.06-25.26,89.78c-16.85,26.74-41.19,48.37-73.02,64.9c-31.85,16.54-69.5,26.45-112.98,29.76L296.66,906.4V264.24
			l259.93-19.79c43.47-3.31,81.29,1.17,113.43,13.44c32.15,12.27,56.49,30.66,73.02,55.16c16.53,24.5,24.8,52.71,24.8,84.59
			c0,36.2-10.88,67.23-32.61,93.1c-21.74,25.89-52.51,46.17-92.31,60.85C685.18,554.51,719.01,570.18,744.43,598.6z"/>
		<path class="st2" d="M425.96,509.6l116.46-17.77c28.73-4.38,51.5-15.06,68.32-32.04c16.81-16.97,25.22-38.65,25.22-65.03
			c0-26.36-8.41-45.64-25.22-57.79c-16.82-12.15-39.59-16.04-68.32-11.66l-116.46,17.77V509.6z M625.4,732.63
			c17.42-18.3,26.13-41.25,26.13-68.85c0-27.6-8.87-48.01-26.59-61.26c-17.74-13.24-40.96-17.67-69.69-13.29l-129.3,19.72v177.56
			l130.21-19.86C584.9,762.27,607.98,750.93,625.4,732.63z M743.7,563.71c25.36,26.49,38.05,59.67,38.05,99.53
			c0,33.12-8.41,63.7-25.22,91.71c-16.82,28.02-41.12,51.51-72.9,70.46c-31.79,18.97-69.39,31.75-112.79,38.37L296.66,905.6V263.44
			l259.51-39.59c43.4-6.62,81.15-5.02,113.25,4.8c32.09,9.82,56.39,26.36,72.9,49.6c16.51,23.24,24.76,50.82,24.76,82.7
			c0,36.2-10.86,68.06-32.55,95.59c-21.71,27.55-52.43,50.17-92.16,67.88C684.55,524.13,718.32,537.22,743.7,563.71z"/>
		<path class="st3" d="M425.74,498.94l116.27-26.65c28.68-6.57,51.41-18.99,68.2-37.25c16.78-18.25,25.18-40.57,25.18-66.95
			c0-26.36-8.4-45-25.18-55.87c-16.79-10.87-39.52-13.02-68.2-6.45l-116.27,26.65V498.94z M624.86,706.76
			c17.39-19.63,26.09-43.24,26.09-70.84c0-27.6-8.85-47.34-26.55-59.23c-17.71-11.88-40.9-14.55-69.58-7.97L425.74,598.3v177.56
			l130-29.8C584.42,739.49,607.47,726.39,624.86,706.76z M742.96,528.81c25.32,24.56,37.99,56.77,37.99,96.63
			c0,33.12-8.4,64.34-25.18,93.63c-16.79,29.31-41.05,54.65-72.78,76.02c-31.74,21.39-69.28,37.04-112.61,46.97l-273.73,62.74
			V262.65l259.08-59.38c43.33-9.93,81.02-11.21,113.06-3.83c32.04,7.38,56.3,22.06,72.78,44.04c16.48,21.98,24.72,48.93,24.72,80.81
			c0,36.2-10.84,68.88-32.5,98.07c-21.67,29.2-52.34,54.17-92.01,74.91C683.91,493.75,717.63,504.26,742.96,528.81z"/>
		<path class="st4" d="M425.53,488.29l116.08-35.53c28.63-8.77,51.33-22.91,68.09-42.46c16.75-19.53,25.13-42.5,25.13-68.87
			c0-26.36-8.38-44.35-25.13-53.95c-16.77-9.59-39.46-10-68.09-1.24l-116.08,35.53V488.29z M624.33,680.89
			c17.37-20.96,26.05-45.23,26.05-72.83c0-27.6-8.84-46.66-26.51-57.21c-17.68-10.53-40.83-11.42-69.46-2.66l-128.87,39.45V765.2
			l129.79-39.73C583.95,716.71,606.96,701.85,624.33,680.89z M742.23,493.92c25.28,22.62,37.93,53.87,37.93,93.73
			c0,33.12-8.38,64.98-25.13,95.55c-16.77,30.59-40.99,57.78-72.66,81.58c-31.69,23.82-69.16,42.33-112.42,55.57l-273.28,83.65
			V261.86l258.66-79.18c43.26-13.24,80.89-17.4,112.88-12.47c31.99,4.93,56.21,17.75,72.66,38.48
			c16.45,20.72,24.68,47.04,24.68,78.93c0,36.2-10.82,69.71-32.45,100.55c-21.64,30.86-52.26,58.17-91.86,81.94
			C683.28,463.37,716.94,471.3,742.23,493.92z"/>
	</g>
</g>
</svg>
